<mxfile host="app.diagrams.net" modified="2024-04-01T19:53:47.835Z" agent="Mozilla/5.0 (Macintosh; Intel Mac OS X 10.15; rv:123.0) Gecko/20100101 Firefox/123.0" etag="kUcnPG7riSsoxv-6v0k3" version="21.6.2" type="device">
  <diagram name="Page-1" id="pvO3sQ0XZKxDFmsq5TMd">
    <mxGraphModel dx="524" dy="451" grid="1" gridSize="10" guides="1" tooltips="1" connect="1" arrows="1" fold="1" page="1" pageScale="1" pageWidth="827" pageHeight="1169" math="0" shadow="0">
      <root>
        <mxCell id="0" />
        <mxCell id="1" parent="0" />
        <mxCell id="Kf9XOqzYosUejoMh7fGY-119" style="edgeStyle=orthogonalEdgeStyle;rounded=0;orthogonalLoop=1;jettySize=auto;html=1;exitX=1;exitY=0.25;exitDx=0;exitDy=0;entryX=0;entryY=0.5;entryDx=0;entryDy=0;" edge="1" parent="1" source="Kf9XOqzYosUejoMh7fGY-58" target="Kf9XOqzYosUejoMh7fGY-64">
          <mxGeometry relative="1" as="geometry" />
        </mxCell>
        <mxCell id="Kf9XOqzYosUejoMh7fGY-120" style="edgeStyle=orthogonalEdgeStyle;rounded=0;orthogonalLoop=1;jettySize=auto;html=1;exitX=1;exitY=0.75;exitDx=0;exitDy=0;entryX=0;entryY=0.5;entryDx=0;entryDy=0;" edge="1" parent="1" source="Kf9XOqzYosUejoMh7fGY-58" target="Kf9XOqzYosUejoMh7fGY-63">
          <mxGeometry relative="1" as="geometry" />
        </mxCell>
        <mxCell id="Kf9XOqzYosUejoMh7fGY-58" value="WP1: Semantic &lt;br&gt;Differencing" style="rounded=0;whiteSpace=wrap;html=1;" vertex="1" parent="1">
          <mxGeometry x="150" y="670" width="100" height="50" as="geometry" />
        </mxCell>
        <mxCell id="Kf9XOqzYosUejoMh7fGY-59" value="WP2: &lt;br&gt;Benchmarking" style="rounded=0;whiteSpace=wrap;html=1;" vertex="1" parent="1">
          <mxGeometry x="150" y="730" width="100" height="50" as="geometry" />
        </mxCell>
        <mxCell id="Kf9XOqzYosUejoMh7fGY-60" value="WP3: Data Visualization" style="rounded=0;whiteSpace=wrap;html=1;" vertex="1" parent="1">
          <mxGeometry x="390" y="670" width="100" height="50" as="geometry" />
        </mxCell>
        <mxCell id="Kf9XOqzYosUejoMh7fGY-117" style="edgeStyle=orthogonalEdgeStyle;rounded=0;orthogonalLoop=1;jettySize=auto;html=1;exitX=0;exitY=0.25;exitDx=0;exitDy=0;entryX=1;entryY=0.5;entryDx=0;entryDy=0;" edge="1" parent="1" source="Kf9XOqzYosUejoMh7fGY-61" target="Kf9XOqzYosUejoMh7fGY-67">
          <mxGeometry relative="1" as="geometry" />
        </mxCell>
        <mxCell id="Kf9XOqzYosUejoMh7fGY-118" style="edgeStyle=orthogonalEdgeStyle;rounded=0;orthogonalLoop=1;jettySize=auto;html=1;exitX=0;exitY=0.75;exitDx=0;exitDy=0;entryX=1;entryY=0.5;entryDx=0;entryDy=0;" edge="1" parent="1" source="Kf9XOqzYosUejoMh7fGY-61" target="Kf9XOqzYosUejoMh7fGY-68">
          <mxGeometry relative="1" as="geometry" />
        </mxCell>
        <mxCell id="Kf9XOqzYosUejoMh7fGY-61" value="WP4: &lt;br&gt;Pilot Study" style="rounded=0;whiteSpace=wrap;html=1;" vertex="1" parent="1">
          <mxGeometry x="390" y="730" width="100" height="50" as="geometry" />
        </mxCell>
        <mxCell id="Kf9XOqzYosUejoMh7fGY-82" style="edgeStyle=orthogonalEdgeStyle;rounded=0;orthogonalLoop=1;jettySize=auto;html=1;exitX=0.5;exitY=0;exitDx=0;exitDy=0;entryX=0;entryY=0.5;entryDx=0;entryDy=0;" edge="1" parent="1" source="Kf9XOqzYosUejoMh7fGY-62" target="Kf9XOqzYosUejoMh7fGY-67">
          <mxGeometry relative="1" as="geometry">
            <mxPoint x="330" y="720" as="targetPoint" />
            <Array as="points">
              <mxPoint x="320" y="743" />
            </Array>
          </mxGeometry>
        </mxCell>
        <mxCell id="Kf9XOqzYosUejoMh7fGY-85" style="edgeStyle=orthogonalEdgeStyle;rounded=0;orthogonalLoop=1;jettySize=auto;html=1;exitX=0.5;exitY=0;exitDx=0;exitDy=0;entryX=0;entryY=0.5;entryDx=0;entryDy=0;" edge="1" parent="1" source="Kf9XOqzYosUejoMh7fGY-62" target="Kf9XOqzYosUejoMh7fGY-68">
          <mxGeometry relative="1" as="geometry">
            <Array as="points">
              <mxPoint x="320" y="768" />
            </Array>
          </mxGeometry>
        </mxCell>
        <mxCell id="Kf9XOqzYosUejoMh7fGY-62" value="WP5: &lt;br&gt;User Study" style="rounded=0;whiteSpace=wrap;html=1;" vertex="1" parent="1">
          <mxGeometry x="270" y="790" width="100" height="50" as="geometry" />
        </mxCell>
        <mxCell id="Kf9XOqzYosUejoMh7fGY-63" value="C2" style="ellipse;whiteSpace=wrap;html=1;aspect=fixed;" vertex="1" parent="1">
          <mxGeometry x="270" y="695" width="25" height="25" as="geometry" />
        </mxCell>
        <mxCell id="Kf9XOqzYosUejoMh7fGY-64" value="C1" style="ellipse;whiteSpace=wrap;html=1;aspect=fixed;" vertex="1" parent="1">
          <mxGeometry x="270" y="670" width="25" height="25" as="geometry" />
        </mxCell>
        <mxCell id="Kf9XOqzYosUejoMh7fGY-65" value="C3" style="ellipse;whiteSpace=wrap;html=1;aspect=fixed;" vertex="1" parent="1">
          <mxGeometry x="339" y="682.5" width="25" height="25" as="geometry" />
        </mxCell>
        <mxCell id="Kf9XOqzYosUejoMh7fGY-66" value="C4" style="ellipse;whiteSpace=wrap;html=1;aspect=fixed;" vertex="1" parent="1">
          <mxGeometry x="270" y="742.5" width="25" height="25" as="geometry" />
        </mxCell>
        <mxCell id="Kf9XOqzYosUejoMh7fGY-67" value="C5" style="ellipse;whiteSpace=wrap;html=1;aspect=fixed;" vertex="1" parent="1">
          <mxGeometry x="339" y="730" width="25" height="25" as="geometry" />
        </mxCell>
        <mxCell id="Kf9XOqzYosUejoMh7fGY-68" value="C6" style="ellipse;whiteSpace=wrap;html=1;aspect=fixed;" vertex="1" parent="1">
          <mxGeometry x="339" y="755" width="25" height="25" as="geometry" />
        </mxCell>
        <mxCell id="Kf9XOqzYosUejoMh7fGY-70" style="rounded=0;orthogonalLoop=1;jettySize=auto;html=1;exitX=1;exitY=0.5;exitDx=0;exitDy=0;entryX=0;entryY=0.5;entryDx=0;entryDy=0;" edge="1" parent="1" source="Kf9XOqzYosUejoMh7fGY-59" target="Kf9XOqzYosUejoMh7fGY-66">
          <mxGeometry relative="1" as="geometry">
            <mxPoint x="325.5" y="870" as="sourcePoint" />
            <mxPoint x="350.5" y="890" as="targetPoint" />
          </mxGeometry>
        </mxCell>
        <mxCell id="Kf9XOqzYosUejoMh7fGY-71" style="rounded=0;orthogonalLoop=1;jettySize=auto;html=1;exitX=0;exitY=0.5;exitDx=0;exitDy=0;entryX=1;entryY=0.5;entryDx=0;entryDy=0;" edge="1" parent="1" source="Kf9XOqzYosUejoMh7fGY-60" target="Kf9XOqzYosUejoMh7fGY-65">
          <mxGeometry relative="1" as="geometry">
            <mxPoint x="385.5" y="1000" as="sourcePoint" />
            <mxPoint x="375.5" y="985" as="targetPoint" />
          </mxGeometry>
        </mxCell>
        <mxCell id="Kf9XOqzYosUejoMh7fGY-76" value="RQ1:" style="text;html=1;align=center;verticalAlign=middle;resizable=0;points=[];autosize=1;strokeColor=none;fillColor=none;" vertex="1" parent="1">
          <mxGeometry x="175" y="640" width="50" height="30" as="geometry" />
        </mxCell>
        <mxCell id="Kf9XOqzYosUejoMh7fGY-77" value="RQ2:" style="text;html=1;align=center;verticalAlign=middle;resizable=0;points=[];autosize=1;strokeColor=none;fillColor=none;" vertex="1" parent="1">
          <mxGeometry x="415" y="640" width="50" height="30" as="geometry" />
        </mxCell>
        <mxCell id="Kf9XOqzYosUejoMh7fGY-78" value="RQ3:" style="text;html=1;align=center;verticalAlign=middle;resizable=0;points=[];autosize=1;strokeColor=none;fillColor=none;" vertex="1" parent="1">
          <mxGeometry x="220" y="800" width="50" height="30" as="geometry" />
        </mxCell>
      </root>
    </mxGraphModel>
  </diagram>
</mxfile>
